name rise34.3697peak60.0498fall86.3158.mot
datacolumns 19
datarows 33
range 12.503285 12.556621
endheader
time	ground_force1_vx	ground_force1_vy	ground_force1_vz	ground_force1_px	ground_force1_py	ground_force1_pz	ground_force2_vx	ground_force2_vy	ground_force2_vz	ground_force2_px	ground_force2_py	ground_force2_pz	ground_torque1_x	ground_torque1_y	ground_torque1_z	ground_torque2_x	ground_torque2_y	ground_torque2_z	
12.503285	44.250897	756.617122	55.039445	0.440686	0.000000	0.122350	0.000000	0.000000	0.000000	0.000000	0.000000	0.000000	0.000000	35.008240	0.000000	0.000000	0.000000	0.000000	
12.504951	43.447072	758.325126	55.156553	0.438521	0.000000	0.122475	0.000000	0.000000	0.000000	0.000000	0.000000	0.000000	0.000000	35.082603	0.000000	0.000000	0.000000	0.000000	
12.506634	42.654496	759.939124	55.273713	0.436369	0.000000	0.122602	0.000000	0.000000	0.000000	0.000000	0.000000	0.000000	0.000000	35.156360	0.000000	0.000000	0.000000	0.000000	
12.508281	41.873687	761.458354	55.390432	0.434234	0.000000	0.122729	0.000000	0.000000	0.000000	0.000000	0.000000	0.000000	0.000000	35.229152	0.000000	0.000000	0.000000	0.000000	
12.509950	41.105088	762.882143	55.506183	0.432116	0.000000	0.122857	0.000000	0.000000	0.000000	0.000000	0.000000	0.000000	0.000000	35.300602	0.000000	0.000000	0.000000	0.000000	
12.511621	40.349075	764.209921	55.620413	0.430020	0.000000	0.122985	0.000000	0.000000	0.000000	0.000000	0.000000	0.000000	0.000000	35.370318	0.000000	0.000000	0.000000	0.000000	
12.513291	39.605951	765.441227	55.732542	0.427948	0.000000	0.123113	0.000000	0.000000	0.000000	0.000000	0.000000	0.000000	0.000000	35.437898	0.000000	0.000000	0.000000	0.000000	
12.514956	38.875959	766.575723	55.841976	0.425901	0.000000	0.123240	0.000000	0.000000	0.000000	0.000000	0.000000	0.000000	0.000000	35.502935	0.000000	0.000000	0.000000	0.000000	
12.516619	38.159278	767.613194	55.948111	0.423882	0.000000	0.123368	0.000000	0.000000	0.000000	0.000000	0.000000	0.000000	0.000000	35.565020	0.000000	0.000000	0.000000	0.000000	
12.518290	37.456026	768.553562	56.050335	0.421893	0.000000	0.123494	0.000000	0.000000	0.000000	0.000000	0.000000	0.000000	0.000000	35.623748	0.000000	0.000000	0.000000	0.000000	
12.519952	36.766269	769.396887	56.148039	0.419935	0.000000	0.123620	0.000000	0.000000	0.000000	0.000000	0.000000	0.000000	0.000000	35.678719	0.000000	0.000000	0.000000	0.000000	
12.521616	36.090020	770.143379	56.240620	0.418011	0.000000	0.123744	0.000000	0.000000	0.000000	0.000000	0.000000	0.000000	0.000000	35.729546	0.000000	0.000000	0.000000	0.000000	
12.523283	35.427244	770.793397	56.327484	0.416123	0.000000	0.123867	0.000000	0.000000	0.000000	0.000000	0.000000	0.000000	0.000000	35.775856	0.000000	0.000000	0.000000	0.000000	
12.524953	34.777859	771.347456	56.408056	0.414271	0.000000	0.123988	0.000000	0.000000	0.000000	0.000000	0.000000	0.000000	0.000000	35.817289	0.000000	0.000000	0.000000	0.000000	
12.526620	34.141746	771.806230	56.481781	0.412458	0.000000	0.124107	0.000000	0.000000	0.000000	0.000000	0.000000	0.000000	0.000000	35.853511	0.000000	0.000000	0.000000	0.000000	
12.528284	33.518747	772.170556	56.548127	0.410684	0.000000	0.124225	0.000000	0.000000	0.000000	0.000000	0.000000	0.000000	0.000000	35.884205	0.000000	0.000000	0.000000	0.000000	
12.529949	32.908671	772.441434	56.606594	0.408951	0.000000	0.124340	0.000000	0.000000	0.000000	0.000000	0.000000	0.000000	0.000000	35.909082	0.000000	0.000000	0.000000	0.000000	
12.531618	32.311298	772.620029	56.656716	0.407259	0.000000	0.124453	0.000000	0.000000	0.000000	0.000000	0.000000	0.000000	0.000000	35.927878	0.000000	0.000000	0.000000	0.000000	
12.533284	31.726380	772.707671	56.698059	0.405611	0.000000	0.124563	0.000000	0.000000	0.000000	0.000000	0.000000	0.000000	0.000000	35.940359	0.000000	0.000000	0.000000	0.000000	
12.534954	31.153650	772.705856	56.730232	0.404005	0.000000	0.124671	0.000000	0.000000	0.000000	0.000000	0.000000	0.000000	0.000000	35.946317	0.000000	0.000000	0.000000	0.000000	
12.536619	30.592822	772.616242	56.752885	0.402445	0.000000	0.124776	0.000000	0.000000	0.000000	0.000000	0.000000	0.000000	0.000000	35.945578	0.000000	0.000000	0.000000	0.000000	
12.538290	30.043592	772.440650	56.765711	0.400928	0.000000	0.124877	0.000000	0.000000	0.000000	0.000000	0.000000	0.000000	0.000000	35.937998	0.000000	0.000000	0.000000	0.000000	
12.539955	29.505647	772.181056	56.768452	0.399457	0.000000	0.124976	0.000000	0.000000	0.000000	0.000000	0.000000	0.000000	0.000000	35.923462	0.000000	0.000000	0.000000	0.000000	
12.541623	28.978663	771.839596	56.760892	0.398032	0.000000	0.125072	0.000000	0.000000	0.000000	0.000000	0.000000	0.000000	0.000000	35.901891	0.000000	0.000000	0.000000	0.000000	
12.543283	28.462313	771.418553	56.742868	0.396652	0.000000	0.125164	0.000000	0.000000	0.000000	0.000000	0.000000	0.000000	0.000000	35.873234	0.000000	0.000000	0.000000	0.000000	
12.544955	27.956264	770.920357	56.714264	0.395318	0.000000	0.125253	0.000000	0.000000	0.000000	0.000000	0.000000	0.000000	0.000000	35.837475	0.000000	0.000000	0.000000	0.000000	
12.546620	27.460182	770.347579	56.675013	0.394030	0.000000	0.125339	0.000000	0.000000	0.000000	0.000000	0.000000	0.000000	0.000000	35.794627	0.000000	0.000000	0.000000	0.000000	
12.548287	26.973738	769.702923	56.625097	0.392787	0.000000	0.125421	0.000000	0.000000	0.000000	0.000000	0.000000	0.000000	0.000000	35.744732	0.000000	0.000000	0.000000	0.000000	
12.549955	26.496604	768.989221	56.564547	0.391589	0.000000	0.125500	0.000000	0.000000	0.000000	0.000000	0.000000	0.000000	0.000000	35.687864	0.000000	0.000000	0.000000	0.000000	
12.551616	26.028458	768.209424	56.493441	0.390437	0.000000	0.125575	0.000000	0.000000	0.000000	0.000000	0.000000	0.000000	0.000000	35.624124	0.000000	0.000000	0.000000	0.000000	
12.553286	25.568986	767.366596	56.411904	0.389329	0.000000	0.125647	0.000000	0.000000	0.000000	0.000000	0.000000	0.000000	0.000000	35.553639	0.000000	0.000000	0.000000	0.000000	
12.554950	25.117882	766.463907	56.320104	0.388265	0.000000	0.125714	0.000000	0.000000	0.000000	0.000000	0.000000	0.000000	0.000000	35.476565	0.000000	0.000000	0.000000	0.000000	
12.556621	24.674851	765.504620	56.218254	0.387243	0.000000	0.125779	0.000000	0.000000	0.000000	0.000000	0.000000	0.000000	0.000000	35.393078	0.000000	0.000000	0.000000	0.000000	
